<svg width="720" height="320" viewBox="0 0 720 320" xmlns="http://www.w3.org/2000/svg" role="img" aria-label="Privacy and data flow diagram">
  <rect width="720" height="320" fill="#0f1729" rx="18" />
  <text x="36" y="50" fill="#cde6ff" font-family="Inter, Arial" font-size="18" font-weight="700">Where your data lives</text>
  <rect x="32" y="64" width="656" height="220" rx="14" fill="#0e1422" stroke="#1f2d45" stroke-width="2" />

  <rect x="58" y="98" width="212" height="140" rx="12" fill="#0b192d" stroke="#234567" />
  <text x="74" y="124" fill="#93c5fd" font-family="Inter, Arial" font-size="14" font-weight="700">Local only</text>
  <text x="74" y="144" fill="#dce8ff" font-family="Inter, Arial" font-size="12">chrome.storage.local</text>
  <text x="74" y="164" fill="#dce8ff" font-family="Inter, Arial" font-size="12">• API key</text>
  <text x="74" y="182" fill="#dce8ff" font-family="Inter, Arial" font-size="12">• Promptlets</text>
  <text x="74" y="200" fill="#dce8ff" font-family="Inter, Arial" font-size="12">• Studio drafts &amp; layout</text>
  <rect x="82" y="208" width="156" height="22" rx="7" fill="#16a34a" stroke="#86efac" />
  <text x="96" y="224" fill="#062816" font-family="Inter, Arial" font-size="12" font-weight="800">No cloud storage</text>

  <rect x="450" y="98" width="212" height="140" rx="12" fill="#0b192d" stroke="#234567" />
  <text x="466" y="124" fill="#93c5fd" font-family="Inter, Arial" font-size="14" font-weight="700">OpenAI API</text>
  <text x="466" y="146" fill="#dce8ff" font-family="Inter, Arial" font-size="12">Receives selected text</text>
  <text x="466" y="164" fill="#dce8ff" font-family="Inter, Arial" font-size="12">+ prompt content to respond</text>
  <text x="466" y="182" fill="#bcd3ff" font-family="Inter, Arial" font-size="12">Key never uploaded by Prompt It!</text>

  <path d="M270 168 C330 168, 388 150, 450 148" stroke="#38bdf8" stroke-width="3" fill="none" marker-end="url(#arrow)" />
  <path d="M450 186 C390 188, 330 204, 270 206" stroke="#10b981" stroke-width="3" fill="none" marker-end="url(#arrow)" />
  <defs>
    <marker id="arrow" viewBox="0 0 10 10" refX="5" refY="5" markerWidth="8" markerHeight="8" orient="auto-start-reverse">
      <path d="M 0 0 L 10 5 L 0 10 z" fill="#38bdf8" />
    </marker>
  </defs>

  <rect x="268" y="230" width="184" height="26" rx="8" fill="#1e293b" />
  <text x="280" y="248" fill="#cbd5f5" font-family="Inter, Arial" font-size="12">You control when data is sent</text>
</svg>
