<svg width="720" height="360" viewBox="0 0 720 360" xmlns="http://www.w3.org/2000/svg" role="img" aria-label="Studio chaining demo">
  <rect width="720" height="360" fill="#0f1729" rx="18" />
  <rect x="28" y="26" width="664" height="308" rx="14" fill="#0e1422" stroke="#1f2d45" stroke-width="2" />
  <text x="50" y="58" fill="#cde6ff" font-family="Inter, Arial" font-size="17" font-weight="700">Studio</text>
  <text x="50" y="80" fill="#9fbafc" font-family="Inter, Arial" font-size="12">Draft, run promptlets, and chain outputs</text>

  <rect x="50" y="96" width="620" height="206" rx="12" fill="#0b1a2d" stroke="#20314a" />
  <rect x="70" y="118" width="280" height="160" rx="10" fill="#0f2037" stroke="#27436d" />
  <text x="88" y="142" fill="#93c5fd" font-family="Inter, Arial" font-size="13" font-weight="700">Input</text>
  <text x="88" y="164" fill="#dce8ff" font-family="Inter, Arial" font-size="12">Draft your text here…</text>
  <rect x="360" y="118" width="290" height="160" rx="10" fill="#0f2037" stroke="#27436d" />
  <text x="378" y="142" fill="#93c5fd" font-family="Inter, Arial" font-size="13" font-weight="700">Output</text>
  <text x="378" y="164" fill="#dce8ff" font-family="Inter, Arial" font-size="12">Result after running promptlet…</text>

  <rect x="560" y="94" width="98" height="20" rx="6" fill="#1e3a8a" stroke="#60a5fa" />
  <text x="572" y="108" fill="#eaf3ff" font-family="Inter, Arial" font-size="11" font-weight="700">Chain next</text>

  <rect x="70" y="276" width="110" height="26" rx="8" fill="#0ea5e9" stroke="#67e8f9" />
  <text x="82" y="294" fill="#0b1020" font-family="Inter, Arial" font-size="12" font-weight="800">Run Summarise</text>
  <rect x="192" y="276" width="128" height="26" rx="8" fill="#1e293b" stroke="#334155" />
  <text x="204" y="294" fill="#cbd5f5" font-family="Inter, Arial" font-size="12">Copy Output</text>
  <rect x="332" y="276" width="120" height="26" rx="8" fill="#10b981" stroke="#6ee7a8" />
  <text x="350" y="294" fill="#062816" font-family="Inter, Arial" font-size="12" font-weight="800">🔗 Chain</text>

  <path d="M392 190 C430 188, 430 210, 456 210" stroke="#38bdf8" stroke-width="3" fill="none" marker-end="url(#arrow)" />
  <defs>
    <marker id="arrow" viewBox="0 0 10 10" refX="5" refY="5" markerWidth="8" markerHeight="8" orient="auto-start-reverse">
      <path d="M 0 0 L 10 5 L 0 10 z" fill="#38bdf8" />
    </marker>
  </defs>
  <rect x="470" y="204" width="180" height="30" rx="9" fill="#1e3a8a" stroke="#60a5fa" />
  <text x="482" y="223" fill="#eaf3ff" font-family="Inter, Arial" font-size="12" font-weight="700">Send to next promptlet</text>
</svg>
